<svg version="1.0" xmlns="http://www.w3.org/2000/svg" viewBox="0 0 2600.000000 2600.000000" preserveAspectRatio="xMidYMid meet">
  <g transform="matrix(0.1, 0, 0, -0.1, -24.724287, 2582.587402)" fill="#000000" stroke="none" style="--noir-inline-fill: #ffffff;" data-noir-inline-fill="">
    <path d="M16124 23193 c-38 -71 -354 -715 -354 -721 0 -5 41 -28 90 -52 50
-24 90 -45 90 -47 0 -3 -181 -366 -184 -370 -2 -2 -54 20 -117 48 -1021 458
-2168 680 -3293 639 -1292 -48 -2492 -402 -3585 -1057 -840 -504 -1564 -1156
-2151 -1938 -802 -1068 -1295 -2303 -1449 -3630 -39 -329 -46 -464 -45 -880 0
-413 10 -595 49 -910 183 -1463 775 -2811 1728 -3935 289 -340 657 -698 1016
-989 310 -251 722 -528 1073 -722 54 -30 98 -59 98 -64 0 -10 -166 -355 -175
-363 -1 -2 -44 18 -95 43 -51 25 -94 44 -96 42 -7 -7 -364 -737 -364 -745 0
-8 546 -276 726 -356 153 -68 510 -208 679 -266 704 -242 1473 -399 2203 -451
146 -10 172 -15 171 -28 0 -9 -64 -398 -142 -866 l-143 -850 -109 -7 c-61 -3
-245 -11 -410 -18 -1493 -56 -2508 -239 -2803 -505 -54 -49 -71 -76 -199 -322
-166 -317 -303 -605 -303 -640 0 -239 1021 -525 2435 -682 1426 -159 2899
-159 4320 0 1168 130 2129 363 2363 574 60 54 75 92 56 147 -37 108 -396 813
-446 875 -245 309 -1284 499 -3073 563 -159 6 -291 12 -293 14 -6 6 -291 1730
-287 1734 2 2 82 10 177 18 1514 118 2963 619 4218 1457 492 329 894 660 1321
1086 252 253 430 451 635 707 1064 1331 1721 2954 1879 4639 40 439 45 1124
11 1520 -135 1527 -622 2929 -1449 4170 -554 830 -1228 1543 -2022 2139 -442
333 -873 595 -1455 886 l-281 140 -15 -27z m-4904 -918 c282 -23 356 -38 293
-63 -15 -6 -75 -29 -133 -51 -58 -23 -265 -121 -461 -220 -369 -186 -481 -231
-575 -231 -122 0 -208 -22 -489 -125 -55 -20 -129 -41 -164 -46 -73 -11 -159
-51 -368 -173 -336 -195 -447 -222 -415 -100 16 61 53 117 131 198 101 104
203 182 315 238 478 240 976 422 1571 576 56 14 75 14 295 -3z m5350 -233
c700 -404 1335 -912 1874 -1501 1111 -1212 1820 -2744 2025 -4375 49 -389 56
-513 55 -1016 0 -502 -12 -682 -69 -1076 -222 -1529 -866 -2931 -1884 -4099
-135 -155 -461 -485 -623 -632 -1262 -1143 -2860 -1850 -4558 -2017 -544 -54
-1182 -47 -1725 20 -655 79 -1324 249 -1935 491 -180 71 -410 171 -423 183 -5
4 31 88 80 186 48 99 88 180 89 181 0 2 56 -22 124 -53 1398 -625 2991 -799
4545 -498 2115 411 3907 1663 4959 3468 571 978 895 2038 998 3266 20 241 17
1058 -5 1275 -42 413 -96 745 -172 1069 -387 1635 -1297 3071 -2620 4136 -310
250 -732 531 -1077 720 -43 23 -78 46 -78 51 0 5 39 87 87 183 l87 175 76 -41
c41 -23 118 -66 170 -96z m-3845 72 c-131 -108 -415 -140 -507 -57 -26 23 -23
53 5 54 12 0 83 7 157 14 74 7 189 13 255 13 l120 1 -30 -25z m2312 -48 c708
-252 1354 -597 1938 -1036 1368 -1028 2328 -2481 2726 -4127 52 -218 48 -229
-7 -18 -25 93 -59 202 -75 242 -30 70 -70 123 -94 123 -26 0 -65 -43 -95 -103
-37 -77 -56 -198 -65 -427 -10 -255 -25 -320 -104 -468 -40 -74 -46 -170 -27
-418 29 -387 19 -533 -48 -669 -38 -76 -112 -159 -120 -134 -3 8 -49 160 -102
339 -263 890 -467 1494 -534 1580 l-20 25 0 -56 c0 -67 -16 -87 -52 -68 -73
38 -216 194 -386 417 l-86 114 -46 -6 c-25 -3 -155 -8 -290 -12 -368 -10 -464
8 -565 105 -27 27 -60 54 -72 60 -35 18 -92 13 -185 -15 -58 -18 -95 -24 -115
-20 -27 7 -53 32 -283 272 -111 116 -168 154 -232 154 -21 0 -46 -9 -63 -22
-25 -19 -27 -26 -23 -70 4 -39 17 -66 62 -131 100 -144 247 -332 268 -341 14
-7 29 -5 53 8 18 10 38 15 44 11 18 -10 47 -74 71 -153 18 -59 26 -73 46 -78
53 -13 205 96 283 204 l45 61 55 -58 c31 -32 115 -103 187 -159 72 -55 155
-123 184 -149 l53 -49 -11 -90 c-34 -260 -154 -538 -304 -699 -65 -70 -104
-94 -183 -114 -110 -28 -258 -158 -645 -568 -136 -144 -179 -172 -263 -173
-125 0 -180 68 -197 248 -17 181 -144 485 -356 853 -288 502 -614 889 -919
1093 -76 51 -193 112 -200 104 -2 -2 26 -49 62 -104 175 -260 489 -773 648
-1059 115 -205 228 -441 259 -538 46 -145 75 -179 235 -273 147 -86 198 -155
276 -368 10 -28 38 -69 64 -97 95 -98 182 -91 484 40 65 28 151 61 190 73 77
23 209 30 227 12 6 -6 13 -49 17 -96 18 -260 -128 -662 -404 -1109 -222 -361
-489 -686 -671 -819 -88 -63 -143 -124 -193 -215 -97 -175 -171 -514 -186
-845 -4 -114 -2 -139 27 -280 41 -200 50 -365 26 -474 -29 -130 -85 -227 -195
-337 -110 -109 -190 -165 -373 -256 -155 -77 -164 -88 -172 -212 -15 -209 -59
-295 -219 -427 -72 -61 -80 -71 -128 -172 -117 -247 -156 -308 -265 -413 -245
-234 -632 -356 -1195 -376 l-176 -6 -6 84 c-3 46 -16 118 -27 159 -28 103
-121 286 -231 460 -152 240 -209 338 -280 485 -104 217 -158 390 -195 625 -26
162 -26 535 0 755 18 158 18 161 -2 255 -45 216 -188 525 -450 969 -46 80 -94
165 -105 190 -24 55 -26 135 -7 292 18 148 9 327 -19 400 -36 94 -36 94 -122
78 -41 -7 -121 -13 -179 -13 -95 -1 -110 2 -162 27 -67 33 -90 65 -114 162
-22 88 -55 125 -110 125 -21 0 -211 -43 -423 -95 -688 -168 -991 -218 -1127
-184 -39 10 -52 21 -98 83 -29 39 -119 145 -200 236 -204 229 -220 253 -275
435 -11 39 -86 194 -166 345 -162 308 -233 466 -242 538 -5 44 -2 53 29 93 94
124 138 361 138 749 0 433 115 618 710 1139 372 325 555 518 697 731 114 172
141 241 109 283 -7 9 -53 40 -102 68 -112 63 -134 87 -134 142 0 47 21 91 80
169 56 74 78 138 89 268 15 173 37 192 226 198 66 2 176 -1 245 -5 157 -11
221 -3 274 34 47 33 126 146 126 181 0 40 -18 64 -128 168 -59 56 -104 105
-100 109 4 4 44 14 90 21 163 29 309 87 738 294 274 132 363 170 401 170 33 0
49 39 49 118 0 67 2 76 28 102 31 31 86 50 144 50 79 0 116 -42 125 -141 5
-47 10 -62 26 -71 33 -17 595 -1 625 19 13 8 35 40 49 71 78 177 94 205 150
260 70 69 131 103 243 136 l85 24 -125 -1 c-187 -1 -270 30 -285 108 -7 34 15
102 46 146 12 17 19 33 16 36 -3 3 -41 -3 -84 -12 -106 -24 -127 -48 -183
-202 -83 -229 -111 -298 -142 -346 -86 -134 -225 -180 -343 -114 l-40 23 -5
94 c-7 110 -13 128 -47 136 -26 7 -42 3 -156 -40 -178 -68 -292 3 -252 156 15
60 74 124 125 138 19 5 57 14 83 21 59 15 117 52 313 200 320 241 480 307 764
316 249 8 501 -34 715 -118 164 -65 225 -119 149 -133 -74 -14 -161 -46 -179
-66 -18 -20 -18 -21 3 -42 17 -17 33 -22 84 -22 76 0 103 12 248 119 226 166
408 226 739 243 91 5 136 11 138 19 3 7 -25 44 -61 82 -67 72 -78 94 -50 105
24 9 106 7 189 -5 102 -16 125 -6 125 53 0 24 -7 67 -14 96 -8 28 -13 52 -11
52 2 0 83 -29 182 -64z m-857 30 c0 -2 -20 -34 -45 -70 -64 -95 -63 -132 4
-197 45 -43 47 -48 28 -53 -12 -3 -48 -6 -80 -6 -117 0 -196 75 -173 164 9 36
53 84 100 108 67 34 166 67 166 54z m-3860 -550 c19 -4 91 -10 160 -15 126 -9
174 -21 185 -49 19 -50 -154 -121 -370 -152 -147 -20 -182 -8 -170 59 8 47 61
160 87 189 l22 22 25 -24 c14 -13 42 -27 61 -30z m645 -576 c4 -6 -7 -32 -24
-58 -111 -174 -97 -238 82 -375 46 -35 57 -82 31 -138 -31 -70 -99 -118 -194
-138 -30 -6 -128 -36 -217 -67 -226 -77 -260 -71 -210 38 23 52 74 118 210
274 37 42 67 85 67 95 0 30 -44 52 -93 47 -59 -7 -94 -32 -122 -88 -29 -57
-81 -105 -171 -158 -122 -72 -244 -100 -244 -57 0 31 60 133 104 178 56 58
134 108 236 152 121 52 130 59 130 112 0 84 67 124 282 168 136 28 125 27 133
15z m-2991 -182 c-69 -74 -285 -319 -355 -403 -98 -117 -152 -190 -177 -241
-11 -22 -28 -47 -37 -54 -26 -22 -45 12 -45 79 l0 56 172 170 c150 147 454
424 467 425 3 0 -9 -15 -25 -32z m11773 -4100 c-3 -8 -6 -5 -6 6 -1 11 2 17 5
13 3 -3 4 -12 1 -19z m-372 -1543 c87 -170 87 -339 0 -430 -62 -67 -85 -43
-92 97 -3 57 -2 184 2 282 l7 179 24 -29 c13 -16 39 -60 59 -99z m-13919 -611
c110 -293 196 -548 233 -693 l29 -114 86 -61 c206 -148 611 -528 760 -716 82
-103 154 -222 163 -270 3 -19 -1 -98 -10 -175 -26 -221 -30 -310 -18 -455 23
-268 78 -472 215 -793 98 -229 108 -259 113 -343 5 -61 1 -88 -27 -180 -17
-60 -33 -113 -34 -118 -2 -11 -134 155 -253 319 -656 904 -1112 2017 -1283
3130 -41 269 -84 720 -66 704 3 -3 45 -109 92 -235z m10858 -2700 c56 -62 74
-220 41 -379 -88 -429 -487 -1059 -755 -1193 -74 -37 -118 -40 -169 -11 -54
30 -74 65 -79 130 -6 75 19 156 112 368 82 185 101 239 117 326 6 33 18 73 26
89 28 53 106 128 238 226 228 170 309 251 392 393 25 42 47 77 49 77 2 0 14
-12 28 -26z" style="--noir-inline-fill: #FFFFFF; fill: #FFFFFF;" data-noir-inline-fill=""></path>
    <path d="M15466 19949 c-206 -30 -285 -200 -170 -367 23 -33 76 -83 139 -132
157 -120 203 -188 249 -358 30 -111 58 -164 105 -196 105 -72 280 -115 355
-86 14 5 32 20 41 33 14 22 14 30 2 64 -36 106 -240 356 -494 609 -198 195
-198 194 -97 334 69 96 34 123 -130 99z" style="--noir-inline-fill: #FFFFFF; fill: #FFFFFF;" data-noir-inline-fill=""></path>
    <path d="M13732 19803 c-76 -37 -179 -193 -202 -306 -22 -108 9 -184 87 -219
59 -26 116 -21 273 26 169 50 265 69 305 62 21 -4 56 -25 84 -50 41 -36 60
-45 113 -55 186 -32 426 13 444 84 9 35 -12 63 -105 141 -89 74 -161 119 -249
152 -58 22 -83 26 -182 26 -98 1 -128 -3 -201 -27 -48 -15 -94 -27 -103 -27
-10 0 -23 15 -32 38 -29 68 -73 128 -113 150 -46 26 -74 27 -119 5z" style="--noir-inline-fill: #FFFFFF; fill: #FFFFFF;" data-noir-inline-fill=""></path>
    <path d="M11887 19663 c-13 -13 -7 -44 19 -96 51 -100 66 -112 242 -200 182
-90 264 -155 302 -238 l19 -44 -47 -3 c-69 -5 -76 -14 -68 -97 10 -99 9 -105
-10 -126 -10 -11 -54 -31 -98 -44 -93 -29 -99 -32 -115 -63 -9 -18 -10 -31 -1
-58 18 -55 4 -61 -79 -34 -80 25 -204 95 -241 134 -33 36 -20 43 99 50 176 11
240 22 267 47 13 12 24 32 24 44 0 57 -111 174 -360 381 -203 169 -267 229
-287 275 -9 21 -21 39 -26 39 -5 0 -30 -19 -55 -41 -114 -101 -223 -133 -352
-104 -41 9 -101 19 -133 22 -75 7 -90 -6 -122 -113 -14 -45 -36 -97 -48 -115
-33 -50 -108 -96 -202 -124 -140 -43 -180 -82 -169 -167 16 -125 -71 -197
-336 -278 -129 -39 -218 -80 -245 -109 l-20 -23 23 -18 c32 -26 120 -42 237
-43 89 -1 105 2 150 25 215 111 629 193 1045 205 209 6 319 -4 351 -33 30 -27
33 -75 10 -186 -28 -139 -28 -209 2 -243 18 -21 38 -28 112 -40 50 -8 115 -22
145 -31 88 -26 245 -106 388 -198 168 -108 222 -136 267 -136 69 0 92 27 121
146 31 124 67 174 141 193 65 17 128 5 360 -70 366 -118 557 -140 794 -89
l117 24 70 -28 c86 -35 126 -30 181 19 78 71 129 212 138 386 6 118 -7 197
-38 225 -20 18 -42 17 -139 -12 -95 -27 -230 -29 -356 -5 -178 34 -239 28
-335 -31 -25 -15 -58 -28 -72 -28 -49 0 -93 79 -138 249 -45 169 -70 231 -110
273 -37 39 -40 40 -86 34 -68 -10 -135 -45 -152 -80 -19 -40 -2 -90 58 -168
26 -35 53 -73 59 -84 11 -20 8 -22 -29 -27 -52 -7 -69 -22 -69 -64 0 -95 110
-181 262 -204 83 -12 108 -23 93 -38 -19 -19 -130 -41 -211 -41 -68 0 -87 4
-115 23 -26 17 -35 31 -37 57 -7 82 -50 123 -181 171 -74 28 -148 90 -183 152
-13 23 -39 80 -57 127 -95 239 -157 314 -398 480 -224 154 -351 219 -376 193z" style="--noir-inline-fill: #FFFFFF; fill: #FFFFFF;" data-noir-inline-fill=""></path>
  </g>
  <text style="white-space: pre; fill: #FFFFFF; font-family: Arial, sans-serif; font-size: 1933.3px; --noir-inline-fill: #FFFFFF;" x="-97.631" y="1874.97" data-noir-inline-fill="" transform="matrix(0.893957, 0, 0, 1.141602, 94.409607, -335.522247)">{</text>
  <text style="white-space: pre; fill: #FFFFFF; font-family: Arial, sans-serif; font-size: 1933.3px; --noir-inline-fill: #FFFFFF;" x="-97.631" y="1874.97" data-noir-inline-fill="" transform="matrix(0.893957, 0, 0, 1.141602, 2097.922119, -346.305725)">}</text>
</svg>